# xmcd
#
# Track frame offsets:
#	150
#	20816
#	48390
#	84440
#	107535
#	126900
#	148117
#	168957
#	219456
#	245475
#	291895
#	311881
#	333725
#
# Disc length: 4760
#
# Revision: 1
# Processed by: cddbd v1.5.1PL0 Copyright (c) Steve Scherf et al.
# Submitted via: CDex 1.51
# Normalized: r0:TRMNUM
#
DISCID=c512960d
DTITLE=Maynard Ferguson - 1
DYEAR=2003
DGENRE=Jazz
TTITLE0=Chameleon
TTITLE1=Gospel John
TTITLE2=La Fiesta
TTITLE3=Superbone Meets The Bad Man
TTITLE4=It Dont Mean A Thing If It Ain't Got That Swing
TTITLE5=Admiral's Horn
TTITLE6=Body and Soul
TTITLE7=Brazil
TTITLE8=Malaguena
TTITLE9=Caravan
TTITLE10=Spinning Wheel
TTITLE11=Theme from Shaft
TTITLE12=Send In The Clowns
EXTD=YEAR: 2003
EXTT0=
EXTT1=
EXTT2=
EXTT3=
EXTT4=
EXTT5=
EXTT6=
EXTT7=
EXTT8=
EXTT9=
EXTT10=
EXTT11=
EXTT12=
PLAYORDER=
